<svg xmlns="http://www.w3.org/2000/svg" viewBox="0 0 512 512"><defs><linearGradient id="a" x1="0" y1="0" x2="1" y2="1"><stop stop-color="#071d63"/><stop offset="1" stop-color="#123ba5"/></linearGradient><linearGradient id="b" x1="0" y1="0" x2="1" y2="1"><stop stop-color="#13b8ff"/><stop offset=".55" stop-color="#0965ff"/><stop offset="1" stop-color="#8b08f5"/></linearGradient></defs><path fill="url(#a)" d="M74 65c0-25 20-45 45-45h93v151l-54 64c-20 24-20 58 0 82l54 64v111h-93c-25 0-45-20-45-45z"/><path fill="url(#b)" d="M438 20H306c-20 0-38 9-51 24L168 148l-63 75c-17 20-17 49 0 69l63 75 86 101c13 15 32 24 52 24h151L292 296c-18-21-18-51 0-72z"/></svg>